<svg width="32" height="32" viewBox="0 0 32 32" fill="none" xmlns="http://www.w3.org/2000/svg">
<path d="M15.75 0C17.9083 0 19.9427 0.415625 21.8531 1.24687C23.7635 2.07812 25.4333 3.20833 26.8625 4.6375C28.2917 6.06667 29.4219 7.73646 30.2531 9.64687C31.0844 11.5573 31.5 13.5917 31.5 15.75C31.5 17.9083 31.0844 19.9427 30.2531 21.8531C29.4219 23.7635 28.2917 25.4333 26.8625 26.8625C25.4333 28.2917 23.7635 29.4219 21.8531 30.2531C19.9427 31.0844 17.9083 31.5 15.75 31.5C14.5542 31.5 13.4021 31.3687 12.2938 31.1062C11.1854 30.8438 10.0771 30.4646 8.96875 29.9688L11.6375 27.3C12.3083 27.5333 12.9865 27.7083 13.6719 27.825C14.3573 27.9417 15.05 28 15.75 28C19.1333 28 22.0208 26.8042 24.4125 24.4125C26.8042 22.0208 28 19.1333 28 15.75C28 12.3667 26.8042 9.47917 24.4125 7.0875C22.0208 4.69583 19.1333 3.5 15.75 3.5C12.3667 3.5 9.47917 4.69583 7.0875 7.0875C4.69583 9.47917 3.5 12.3667 3.5 15.75C3.5 16.45 3.55833 17.1427 3.675 17.8281C3.79167 18.5135 3.96667 19.1917 4.2 19.8625L1.575 22.4875C1.05 21.4375 0.65625 20.351 0.39375 19.2281C0.13125 18.1052 0 16.9458 0 15.75C0 13.5917 0.415625 11.5573 1.24687 9.64687C2.07812 7.73646 3.20833 6.06667 4.6375 4.6375C6.06667 3.20833 7.73646 2.07812 9.64687 1.24687C11.5573 0.415625 13.5917 0 15.75 0ZM17.5 22.75V16.45L2.45 31.5L0 29.05L15.05 14H8.75V10.5H21V22.75H17.5Z" fill="#0F766E"/>
</svg>
