<svg width="40" height="50" viewBox="0 0 40 50" fill="none" xmlns="http://www.w3.org/2000/svg">
<path d="M20.6875 42.5C21.1875 42.4583 21.6146 42.2604 21.9688 41.9062C22.3229 41.5521 22.5 41.125 22.5 40.625C22.5 40.0417 22.3125 39.5729 21.9375 39.2188C21.5625 38.8646 21.0833 38.7083 20.5 38.75C18.7917 38.875 16.9792 38.4062 15.0625 37.3438C13.1458 36.2812 11.9375 34.3542 11.4375 31.5625C11.3542 31.1042 11.1354 30.7292 10.7812 30.4375C10.4271 30.1458 10.0208 30 9.5625 30C8.97917 30 8.5 30.2188 8.125 30.6562C7.75 31.0938 7.625 31.6042 7.75 32.1875C8.45833 35.9792 10.125 38.6875 12.75 40.3125C15.375 41.9375 18.0208 42.6667 20.6875 42.5ZM20 50C14.2917 50 9.53125 48.0417 5.71875 44.125C1.90625 40.2083 0 35.3333 0 29.5C0 25.3333 1.65625 20.8021 4.96875 15.9062C8.28125 11.0104 13.2917 5.70833 20 0C26.7083 5.70833 31.7188 11.0104 35.0312 15.9062C38.3438 20.8021 40 25.3333 40 29.5C40 35.3333 38.0938 40.2083 34.2812 44.125C30.4688 48.0417 25.7083 50 20 50ZM20 45C24.3333 45 27.9167 43.5312 30.75 40.5938C33.5833 37.6562 35 33.9583 35 29.5C35 26.4583 33.7396 23.0208 31.2188 19.1875C28.6979 15.3542 24.9583 11.1667 20 6.625C15.0417 11.1667 11.3021 15.3542 8.78125 19.1875C6.26042 23.0208 5 26.4583 5 29.5C5 33.9583 6.41667 37.6562 9.25 40.5938C12.0833 43.5312 15.6667 45 20 45Z" fill="#005146"/>
</svg>
