<svg width="32" height="39" viewBox="0 0 32 39" fill="none" xmlns="http://www.w3.org/2000/svg">
<path d="M15.8375 38.5L7.6125 22.75C5.54167 22.8375 3.75521 22.2396 2.25313 20.9563C0.751042 19.6729 0 17.9375 0 15.75C0 14.2625 0.430208 12.9208 1.29063 11.725C2.15104 10.5292 3.2375 9.68333 4.55 9.1875C5.075 6.53333 6.38021 4.33854 8.46563 2.60312C10.551 0.867708 12.9792 0 15.75 0C18.5208 0 20.949 0.867708 23.0344 2.60312C25.1198 4.33854 26.425 6.53333 26.95 9.1875C28.2625 9.68333 29.349 10.5292 30.2094 11.725C31.0698 12.9208 31.5 14.2625 31.5 15.75C31.5 17.9375 30.7271 19.6729 29.1812 20.9563C27.6354 22.2396 25.9 22.8375 23.975 22.75L15.8375 38.5ZM7 19.25C7.4375 19.25 7.86771 19.1771 8.29063 19.0312C8.71354 18.8854 9.1 18.6375 9.45 18.2875L10.4125 17.325L11.55 18.025C12.1625 18.4333 12.826 18.7396 13.5406 18.9437C14.2552 19.1479 14.9917 19.25 15.75 19.25C16.5083 19.25 17.2448 19.1479 17.9594 18.9437C18.674 18.7396 19.3375 18.4333 19.95 18.025L21.0875 17.325L22.05 18.2875C22.4 18.6375 22.7865 18.8854 23.2094 19.0312C23.6323 19.1771 24.0625 19.25 24.5 19.25C25.4625 19.25 26.2865 18.9073 26.9719 18.2219C27.6573 17.5365 28 16.7125 28 15.75C28 14.875 27.7229 14.1094 27.1687 13.4531C26.6146 12.7969 25.9 12.3958 25.025 12.25L23.7125 12.075L23.625 10.675C23.4792 8.6625 22.6479 6.96354 21.1312 5.57812C19.6146 4.19271 17.8208 3.5 15.75 3.5C13.6792 3.5 11.8854 4.19271 10.3688 5.57812C8.85208 6.96354 8.02083 8.6625 7.875 10.675L7.7875 12.075L6.475 12.3375C5.6 12.5125 4.88542 12.9062 4.33125 13.5187C3.77708 14.1312 3.5 14.875 3.5 15.75C3.5 16.7125 3.84271 17.5365 4.52813 18.2219C5.21354 18.9073 6.0375 19.25 7 19.25ZM15.8375 30.8875L20.5625 21.7C19.8625 22.05 19.1042 22.3125 18.2875 22.4875C17.4708 22.6625 16.625 22.75 15.75 22.75C14.9625 22.75 14.1677 22.6625 13.3656 22.4875C12.5635 22.3125 11.7833 22.05 11.025 21.7L15.8375 30.8875Z" fill="#0F766E"/>
</svg>
