<svg width="36" height="44" viewBox="0 0 36 44" fill="none" xmlns="http://www.w3.org/2000/svg">
<path d="M18.1 44L8.7 26C6.33333 26.1 4.29167 25.4167 2.575 23.95C0.858333 22.4833 0 20.5 0 18C0 16.3 0.491667 14.7667 1.475 13.4C2.45833 12.0333 3.7 11.0667 5.2 10.5C5.8 7.46667 7.29167 4.95833 9.675 2.975C12.0583 0.991667 14.8333 0 18 0C21.1667 0 23.9417 0.991667 26.325 2.975C28.7083 4.95833 30.2 7.46667 30.8 10.5C32.3 11.0667 33.5417 12.0333 34.525 13.4C35.5083 14.7667 36 16.3 36 18C36 20.5 35.1167 22.4833 33.35 23.95C31.5833 25.4167 29.6 26.1 27.4 26L18.1 44ZM8 22C8.5 22 8.99167 21.9167 9.475 21.75C9.95833 21.5833 10.4 21.3 10.8 20.9L11.9 19.8L13.2 20.6C13.9 21.0667 14.6583 21.4167 15.475 21.65C16.2917 21.8833 17.1333 22 18 22C18.8667 22 19.7083 21.8833 20.525 21.65C21.3417 21.4167 22.1 21.0667 22.8 20.6L24.1 19.8L25.2 20.9C25.6 21.3 26.0417 21.5833 26.525 21.75C27.0083 21.9167 27.5 22 28 22C29.1 22 30.0417 21.6083 30.825 20.825C31.6083 20.0417 32 19.1 32 18C32 17 31.6833 16.125 31.05 15.375C30.4167 14.625 29.6 14.1667 28.6 14L27.1 13.8L27 12.2C26.8333 9.9 25.8833 7.95833 24.15 6.375C22.4167 4.79167 20.3667 4 18 4C15.6333 4 13.5833 4.79167 11.85 6.375C10.1167 7.95833 9.16667 9.9 9 12.2L8.9 13.8L7.4 14.1C6.4 14.3 5.58333 14.75 4.95 15.45C4.31667 16.15 4 17 4 18C4 19.1 4.39167 20.0417 5.175 20.825C5.95833 21.6083 6.9 22 8 22ZM18.1 35.3L23.5 24.8C22.7 25.2 21.8333 25.5 20.9 25.7C19.9667 25.9 19 26 18 26C17.1 26 16.1917 25.9 15.275 25.7C14.3583 25.5 13.4667 25.2 12.6 24.8L18.1 35.3Z" fill="#005146"/>
</svg>
