<svg width="36" height="44" viewBox="0 0 36 44" fill="none" xmlns="http://www.w3.org/2000/svg">
<path d="M18.1 44L8.7 26C6.33333 26.1 4.29167 25.4167 2.575 23.95C0.858333 22.4833 0 20.5 0 18C0 16.3 0.491667 14.7667 1.475 13.4C2.45833 12.0333 3.7 11.0667 5.2 10.5C5.8 7.46667 7.29167 4.95833 9.675 2.975C12.0583 0.991667 14.8333 0 18 0C21.1667 0 23.9417 0.991667 26.325 2.975C28.7083 4.95833 30.2 7.46667 30.8 10.5C32.3 11.0667 33.5417 12.0333 34.525 13.4C35.5083 14.7667 36 16.3 36 18C36 20.5 35.1167 22.4833 33.35 23.95C31.5833 25.4167 29.6 26.1 27.4 26L18.1 44ZM18.1 35.3L23.5 24.8C22.7 25.2 21.8333 25.5 20.9 25.7C19.9667 25.9 19 26 18 26C17.1 26 16.1917 25.9 15.275 25.7C14.3583 25.5 13.4667 25.2 12.6 24.8L18.1 35.3Z" fill="#005146"/>
</svg>
