<svg width="40" height="48" viewBox="0 0 40 48" fill="none" xmlns="http://www.w3.org/2000/svg">
<path d="M18.1 48L8.7 30C6.33333 30.1 4.29167 29.4167 2.575 27.95C0.858333 26.4833 0 24.5 0 22C0 20.3 0.491667 18.7667 1.475 17.4C2.45833 16.0333 3.7 15.0667 5.2 14.5C5.8 11.4667 7.29167 8.95833 9.675 6.975C12.0583 4.99167 14.8333 4 18 4C21.1667 4 23.9417 4.99167 26.325 6.975C28.7083 8.95833 30.2 11.4667 30.8 14.5C32.3 15.0667 33.5417 16.0333 34.525 17.4C35.5083 18.7667 36 20.3 36 22C36 24.5 35.1167 26.4833 33.35 27.95C31.5833 29.4167 29.6 30.1 27.4 30L18.1 48ZM18.1 39.3L23.5 28.8C22.7 29.2 21.8333 29.5 20.9 29.7C19.9667 29.9 19 30 18 30C17.1 30 16.1917 29.9 15.275 29.7C14.3583 29.5 13.4667 29.2 12.6 28.8L18.1 39.3Z" fill="#005146"/>
<rect opacity="0.75" x="28" width="12" height="12" rx="6" fill="#005146"/>
<rect x="28" width="12" height="12" rx="6" fill="#005146"/>
</svg>
