<svg width="32" height="35" viewBox="0 0 32 35" fill="none" xmlns="http://www.w3.org/2000/svg">
<path d="M14.175 12.25C12.5708 12.25 10.9958 12.476 9.45 12.9281C7.90417 13.3802 6.475 14.0583 5.1625 14.9625L7 31.5H24.5L26.425 14H25.2C24.0917 14 23.0854 13.9198 22.1813 13.7594C21.2771 13.599 20.0375 13.2854 18.4625 12.8187C17.7917 12.6146 17.0917 12.4688 16.3625 12.3812C15.6333 12.2937 14.9042 12.25 14.175 12.25ZM4.725 11.1562C6.2125 10.3688 7.75104 9.77083 9.34063 9.3625C10.9302 8.95417 12.5563 8.75 14.2188 8.75C15.0938 8.75 15.9615 8.80833 16.8219 8.925C17.6823 9.04167 18.5354 9.21667 19.3812 9.45C20.8396 9.85833 21.9552 10.1354 22.7281 10.2812C23.501 10.4271 24.325 10.5 25.2 10.5H26.8187L27.5625 3.5H3.9375L4.725 11.1562ZM6.95625 35C6.05208 35 5.27188 34.7083 4.61563 34.125C3.95938 33.5417 3.5875 32.7979 3.5 31.8938L0 0H31.5L28 31.8938C27.9125 32.7979 27.5406 33.5417 26.8844 34.125C26.2281 34.7083 25.4479 35 24.5437 35H6.95625ZM14.175 31.5C14.9042 31.5 15.6333 31.5 16.3625 31.5C17.0917 31.5 17.7917 31.5 18.4625 31.5C20.0375 31.5 21.2552 31.5 22.1156 31.5C22.976 31.5 23.7708 31.5 24.5 31.5H7C7.40833 31.5 8.30521 31.5 9.69062 31.5C11.076 31.5 12.5708 31.5 14.175 31.5Z" fill="#0F766E"/>
</svg>
